<svg id="Layer_1" data-name="Layer 1" xmlns="http://www.w3.org/2000/svg" width="61.1" height="61.1" viewBox="0 0 61.1 61.1"><defs><style>.cls-1{fill:#fff;}</style></defs><title>ext-link</title><path class="cls-1" d="M41.6045,48.6818c0-3.5056-.0277-6.7772.0085-10.0481.0306-2.7619,1.2524-4.2474,3.4328-4.3,2.2737-.0555,3.6336,1.4865,3.6767,4.3393.0507,3.3586.0843,6.721-.0154,10.0775a7.0926,7.0926,0,0,1-7.36,7.2244q-14.5173.0768-29.0351-.0054a6.955,6.955,0,0,1-7.1667-7.1156Q5.052,34.2166,5.15,19.5786a6.9915,6.9915,0,0,1,7.123-7.19c3.517-.0927,7.0393-.0737,10.5574-.0056,2.4635.0478,3.9625,1.5239,3.8895,3.6161-.0747,2.1382-1.542,3.4671-3.9977,3.4966-3.3516.04-6.704.01-10.2646.01V48.6818Z"/><path class="cls-1" d="M43.0655,12.2453c-2.7027,0-5.4057.0288-8.1078-.0083-2.5751-.0353-4.33-1.5059-4.3127-3.53.0187-2.1658,1.6141-3.5828,4.2-3.5967q8.5149-.0457,17.03.0025c2.6751.0173,4.0383,1.2616,4.0737,3.9259.0788,5.9154.066,11.8332-.0014,17.7489a3.5447,3.5447,0,0,1-3.3854,3.6635A3.6262,3.6262,0,0,1,48.8924,26.79c-.112-2.9274-.0277-5.8623-.0277-9.3234-1,.9108-1.64,1.45-2.23,2.0379q-9.8526,9.8219-19.702,19.6468c-.728.7231-1.517,1.6741-2.4156,1.8627a4.5831,4.5831,0,0,1-3.4572-.49,4.269,4.269,0,0,1-1.148-3.3215,5.8556,5.8556,0,0,1,1.874-2.9219q9.7855-9.8883,19.6784-19.67l2.5727-2.3653Z"/></svg>