<svg id="Layer_1" data-name="Layer 1" xmlns="http://www.w3.org/2000/svg" width="44.6505mm" height="18.4484mm" viewBox="0 0 126.5684 52.2947"><defs><style>.cls-1{fill:#d1d1d1;}</style></defs><title>ig-and-line-loader</title><path class="cls-1" d="M112.4111,37.2061v-1.4l-4.7279-1.1324c-2.5217-.6042-5.0449-1.2021-7.5644-1.8154a2.3077,2.3077,0,0,1-1.8412-2.9433q.8559-3.7705,1.7541-7.5316a2.323,2.323,0,0,1,2.9176-1.7049c2.406.56,4.8094,1.1318,7.2148,1.6945,4.2585.9961,8.5127,2.0115,12.78,2.97a2.54,2.54,0,0,1,2.1056,2.6445c-.0491,4.4417-.0174,8.8843-.0179,13.3266a9.0963,9.0963,0,0,1-8.1908,8.9711,17.1142,17.1142,0,0,1-4.1179-.3375c-4.0563-.59-8.1088-1.2067-12.163-1.8117-2.7634-.4124-5.5233-.8526-8.2935-1.214a5.8153,5.8153,0,0,0-2.2252.1178c-3.5964.98-7.1637,2.0661-10.7582,3.053A13.2333,13.2333,0,0,1,62.6459,39.0735a11.6951,11.6951,0,0,1-.1162-1.56c-.0074-7.1628-.0225-14.3258.0024-21.4886a12.5307,12.5307,0,0,1,3.8084-9.2037A12.9843,12.9843,0,0,1,79.7482,3.44q5.0289,1.413,10.0332,2.9124a8.6945,8.6945,0,0,0,3.9167-.0366q6.3549-.9464,12.71-1.8945c3.2041-.4773,6.41-.9429,9.612-1.4343a2.3371,2.3371,0,0,1,2.94,2.0863q.6122,3.7731,1.1739,7.5541a2.2425,2.2425,0,0,1-1.9987,2.7007c-3.216.5007-6.4369.9694-9.6561,1.4491-4.0239.5995-8.0465,1.2076-12.0727,1.79-1.64.2373-3.283.4827-4.9334.6068a16.8462,16.8462,0,0,1-6.002-1.0347c-2.3552-.6914-4.7163-1.3629-7.0767-2.0366a2.4823,2.4823,0,0,0-3.3232,2.511q-.0024,8.0928,0,16.1857a2.4908,2.4908,0,0,0,3.3323,2.509c2.8164-.8086,5.6355-1.608,8.446-2.4368a15.8239,15.8239,0,0,1,7.0208-.36c3.2915.5131,6.5917.97,9.8882,1.4517q3.9878.5825,7.9757,1.1646C111.93,37.1572,112.1286,37.1741,112.4111,37.2061Z"/><path class="cls-1" d="M2.142,38.39a2.3661,2.3661,0,0,1,2.0673-2.5169q6.479-.9,12.9559-1.8156,4.448-.6221,8.8974-1.2341c.8474-.116,1.0124-.2876,1.0124-1.15q0-5.1191,0-10.2382c0-.8162-.1221-.9753-.9111-1.0861q-6.2041-.8712-12.41-1.7308c-3.1482-.4378-6.2981-.8644-9.4446-1.314a2.35,2.35,0,0,1-2.103-2.8941c.3623-2.4763.6841-4.9585,1.0384-7.436A2.2978,2.2978,0,0,1,5.9806,4.8931c1.4166.1816,2.83.391,4.2445.5858q5.5445.7637,11.0891,1.5256c3.4684.4784,6.9428.9185,10.4011,1.4617a8.3455,8.3455,0,0,0,3.4363-.2768q9.6159-2.4406,19.24-4.8483a2.3457,2.3457,0,0,1,3.1209,1.8667q.9017,3.5948,1.8053,7.1888A2.35,2.35,0,0,1,57.4851,15.47q-8.4107,2.1362-16.8244,4.26c-.921.2328-.9773.2986-.98,1.2466q-.0139,5.6023-.03,11.2046c-.002.8317.0754.936.8853,1.1334q8.4537,2.06,16.9083,4.1174a2.3,2.3,0,0,1,1.7718,2.8706q-.8962,3.7857-1.8235,7.5639a2.3244,2.3244,0,0,1-2.9194,1.7067q-6.36-1.5139-12.7168-3.0376c-2.7314-.6531-5.4523-1.3562-8.2-1.9292a7.1583,7.1583,0,0,0-2.321.1592q-6.5961.893-13.188,1.8175c-3.8786.538-7.756,1.0846-11.6356,1.6145a4.8145,4.8145,0,0,1-1.3228.0364A2.1463,2.1463,0,0,1,3.26,46.41c-.3562-2.4-.678-4.8051-1.0127-7.2083C2.2032,38.8825,2.1644,38.5626,2.142,38.39Z"/></svg>