<?xml version="1.0" encoding="utf-8"?>
<!-- Generator: Adobe Illustrator 23.0.6, SVG Export Plug-In . SVG Version: 6.00 Build 0)  -->
<svg version="1.1" id="Layer_1" xmlns="http://www.w3.org/2000/svg" xmlns:xlink="http://www.w3.org/1999/xlink" x="0px" y="0px"
	 viewBox="0 0 74.6 30.8" style="enable-background:new 0 0 74.6 30.8;" xml:space="preserve">
<style type="text/css">
	.st0{fill:#D1D1D1;}
</style>
<title>ig-and-line-loader</title>
<path class="st0" d="M65.4,21.6v-0.8l-2.7-0.7c-1.5-0.3-2.9-0.7-4.4-1c-0.7-0.1-1.2-0.8-1.1-1.5c0-0.1,0-0.1,0-0.2
	c0.3-1.4,0.7-2.9,1-4.3c0.2-0.7,0.9-1.2,1.6-1c0,0,0.1,0,0.1,0c1.4,0.3,2.8,0.7,4.2,1c2.5,0.6,4.9,1.2,7.4,1.7
	c0.7,0.1,1.3,0.8,1.2,1.5c0,2.6,0,5.1,0,7.7c0,2.7-2.1,4.9-4.7,5.2c-0.8,0-1.6,0-2.4-0.2c-2.3-0.3-4.7-0.7-7-1
	c-1.6-0.2-3.2-0.5-4.8-0.7c-0.4-0.1-0.9,0-1.3,0.1c-2.1,0.6-4.1,1.2-6.2,1.8c-4.1,1.1-8.3-1.3-9.4-5.3c-0.1-0.3-0.2-0.7-0.2-1
	c0-0.3-0.1-0.6-0.1-0.9c0-4.1,0-8.3,0-12.4c0-2,0.8-3.9,2.2-5.3c2-2.1,5-2.8,7.7-2c1.9,0.5,3.9,1.1,5.8,1.7c0.7,0.2,1.5,0.2,2.3,0
	c2.4-0.4,4.9-0.7,7.3-1.1c1.8-0.3,3.7-0.5,5.5-0.8c0.7-0.2,1.5,0.2,1.7,1c0,0.1,0,0.2,0,0.3c0.2,1.5,0.5,2.9,0.7,4.4
	c0.1,0.7-0.3,1.4-1,1.5c-0.1,0-0.1,0-0.2,0c-1.9,0.3-3.7,0.6-5.6,0.8c-2.3,0.3-4.6,0.7-7,1c-0.9,0.1-1.9,0.3-2.8,0.4
	c-1.2,0-2.4-0.2-3.5-0.6c-1.4-0.4-2.7-0.8-4.1-1.2c-0.7-0.3-1.6,0.1-1.8,0.9c-0.1,0.2-0.1,0.4-0.1,0.6c0,3.1,0,6.2,0,9.3
	c-0.1,0.8,0.5,1.5,1.3,1.5c0.2,0,0.4,0,0.6-0.1c1.6-0.5,3.3-0.9,4.9-1.4c1.3-0.4,2.7-0.4,4-0.2c1.9,0.3,3.8,0.6,5.7,0.8
	c1.5,0.2,3.1,0.4,4.6,0.7C65.1,21.6,65.2,21.6,65.4,21.6z"/>
<path class="st0" d="M1.8,22.3C1.7,21.6,2.2,21,3,20.9c2.5-0.3,5-0.7,7.5-1c1.7-0.2,3.4-0.5,5.1-0.7c0.5-0.1,0.6-0.2,0.6-0.7
	c0-2,0-3.9,0-5.9c0-0.5-0.1-0.6-0.5-0.6c-2.4-0.3-4.8-0.7-7.2-1c-1.8-0.3-3.6-0.5-5.4-0.8c-0.7-0.1-1.3-0.7-1.2-1.5
	c0-0.1,0-0.1,0-0.2C2,7.1,2.2,5.6,2.4,4.2C2.5,3.5,3.1,2.9,3.8,3C3.9,3,3.9,3,4,3c0.8,0.1,1.6,0.2,2.4,0.3c2.1,0.3,4.3,0.6,6.4,0.9
	c2,0.3,4,0.5,6,0.8c0.7,0.1,1.3,0,2-0.2C24.5,4,28.2,3,31.9,2.1c0.7-0.3,1.5,0.1,1.7,0.8c0,0.1,0.1,0.2,0.1,0.3
	c0.3,1.4,0.7,2.8,1,4.1C35,8,34.6,8.8,33.9,9.1c-0.1,0-0.1,0-0.2,0.1c-3.2,0.8-6.5,1.6-9.7,2.5c-0.5,0.1-0.6,0.2-0.6,0.7
	c0,2.2,0,4.3,0,6.5c0,0.5,0,0.5,0.5,0.7c3.3,0.8,6.5,1.6,9.8,2.4c0.7,0.1,1.2,0.8,1,1.6c0,0,0,0.1,0,0.1c-0.3,1.5-0.7,2.9-1.1,4.4
	c-0.2,0.7-0.9,1.2-1.6,1c0,0-0.1,0-0.1,0c-2.4-0.6-4.9-1.2-7.3-1.8c-1.6-0.4-3.1-0.8-4.7-1.1c-0.4,0-0.9,0-1.3,0.1
	c-2.5,0.3-5.1,0.7-7.6,1c-2.2,0.3-4.5,0.6-6.7,0.9c-0.3,0-0.5,0-0.8,0c-0.5-0.1-1-0.5-1.1-1.1c-0.2-1.4-0.4-2.8-0.6-4.2
	C1.8,22.6,1.8,22.4,1.8,22.3z"/>
</svg>
