<svg id="Layer_1" data-name="Layer 1" xmlns="http://www.w3.org/2000/svg" viewBox="0 0 2385.85 1416.23"><defs><style>.cls-1{fill:#fff;}</style></defs><title>ig round but new 2020 [Converted]</title><rect x="-71.24" y="-83.13" width="2528.34" height="1580.98"/><path class="cls-1" d="M1177.72,707.72q0-63.65,0-127.29c0-17.55,1.87-34.82,6.71-51.74a170.61,170.61,0,0,1,136-121.31,164.22,164.22,0,0,1,70.69,3.27c27.29,7.39,54.41,15.39,81.6,23.15,16.49,4.7,33,9.24,49.43,14.23a91.91,91.91,0,0,0,41.06,2.69q56.67-8.52,113.35-17,51.32-7.65,102.65-15.24,39.28-5.85,78.54-11.77c4.76-.71,9.52-1.55,14.31-1.9a46.66,46.66,0,0,1,10.76.36,16.48,16.48,0,0,1,13.38,10.86,69.08,69.08,0,0,1,3.68,13.91q7.38,48.18,14.38,96.42a55.63,55.63,0,0,1,.48,10.79c-.4,8.33-4.53,14.32-12.43,17.12a75.29,75.29,0,0,1-14,3.42Q1820,568,1751.72,578.07c-38.38,5.73-76.75,11.59-115.14,17.25-23.51,3.46-47,6.92-70.6,9.9-26,3.29-51.68.35-76.82-6.75-37.93-10.71-75.76-21.74-113.64-32.57-6.07-1.74-12.2-3.26-18.35-4.7a27.34,27.34,0,0,0-7.14-.78c-8.33.27-14.26,4.77-16.63,12.77a47.77,47.77,0,0,0-1.64,9.75c-.3,3.59-.19,7.22-.19,10.83q0,114.19,0,228.41c0,3,0,6,.09,9a57.29,57.29,0,0,0,.58,7.19c2.16,13,9.84,18.78,22.9,17a92.42,92.42,0,0,0,13.16-3.1q58.56-16.74,117.09-33.61a210.94,210.94,0,0,1,76.76-8.13c11.08.92,22.11,2.57,33.12,4.18q52.68,7.74,105.32,15.69,50.88,7.59,101.76,15.16a57.49,57.49,0,0,0,9.87.81c6.92-.2,10.36-3.84,10.7-10.78.35-7.2-2.53-12.29-9.21-15a87.65,87.65,0,0,0-13-3.82q-59.31-13.89-118.65-27.65c-7.91-1.84-15.84-3.58-23.69-5.68a51.6,51.6,0,0,1-10.9-4.19,16.71,16.71,0,0,1-9.36-15.4,50.86,50.86,0,0,1,1.14-11.62q11.16-48.84,22.65-97.59a57.14,57.14,0,0,1,2.75-8.58c4-9.65,10-13.63,20.27-13.13a66.76,66.76,0,0,1,11.58,1.73q52.77,12.13,105.49,24.43,72.51,16.89,145,33.87a128.35,128.35,0,0,1,14.73,4.2c8.64,3.17,13.81,9.44,14.93,18.69a108.26,108.26,0,0,1,.9,12.58q.08,80.81,0,161.6c0,13-1.11,25.83-4.74,38.4a111.79,111.79,0,0,1-92.43,79.62c-12.7,1.72-25.24.91-37.76-.92-37.8-5.52-75.57-11.28-113.36-16.92Q1678,982.63,1626.62,975c-21.72-3.22-43.46-6.32-65.17-9.67a83.93,83.93,0,0,0-36.62,2.15q-42.91,12.39-85.88,24.61c-15,4.3-30,8.84-45.14,12.8-50.94,13.36-98.78,6-142.08-24-46.22-32.07-70.4-77.09-73.72-133.24-.41-6.9-.3-13.84-.3-20.76q0-59.58,0-119.17Z"/><path class="cls-1" d="M731.16,705.89q0-28.89,0-57.77c0-3,0-6-.2-9-.86-11.43-4.29-15.25-15.71-17.4-4.43-.83-8.92-1.37-13.39-2q-71.05-9.83-142.12-19.62-55.43-7.62-110.86-15.2c-6.55-.9-13.08-1.95-19.61-3a41.82,41.82,0,0,1-6.15-1.41c-10.19-3.25-15.07-9.26-14.77-20,.24-8.69,1.49-17.37,2.64-26q5-37.12,10.27-74.2a115.46,115.46,0,0,1,2.86-15.05c3-10.71,9.35-15.46,20.35-15.6a65.54,65.54,0,0,1,9.89.72q83.58,11.43,167.16,22.95,81.35,11.24,162.66,22.6A112.39,112.39,0,0,0,828,473.58q125.09-31.65,250.28-62.79a107.14,107.14,0,0,1,12.35-2.6c11.26-1.44,18.43,2.8,22.75,13.36a77.12,77.12,0,0,1,3.29,10.3q11.63,45.93,23.08,91.9a68.49,68.49,0,0,1,2,13.34c.35,8-3.23,14.11-10.47,17.45a91.26,91.26,0,0,1-15.31,5.24c-21.55,5.56-43.16,10.91-64.75,16.32Q979,594.22,906.84,612.36a97,97,0,0,0-12,3.78,14.21,14.21,0,0,0-9.24,12.35,90.93,90.93,0,0,0-.52,9.9q-.06,67.71,0,135.4c0,2.71.17,5.41.3,8.12.4,7.87,4.54,12.84,11.94,15.18,3.15,1,6.35,1.83,9.57,2.6q94.32,22.6,188.64,45.16c7.32,1.75,14.64,3.45,21.91,5.37a70.79,70.79,0,0,1,10.22,3.5c8.45,3.69,12.14,10.47,11.64,19.49a61.53,61.53,0,0,1-1.64,10.69q-11.16,47-22.51,93.89a72.66,72.66,0,0,1-2.86,9.5c-4.1,10.44-10.6,14.59-21.67,13.69a78.1,78.1,0,0,1-11.53-2q-74.61-17.75-149.2-35.58c-34.81-8.31-69.65-16.5-104.42-25a103.16,103.16,0,0,0-39.37-1.83c-57.19,8-114.41,15.83-171.62,23.72Q536.22,971.11,458,981.85a101.58,101.58,0,0,1-15.29.92c-9.19-.14-15.38-4.88-18-13.63a98.87,98.87,0,0,1-3.17-15q-6.31-44.68-12.37-89.4c-.41-3-.71-6-.84-9-.63-14.82,4.54-21.55,19.18-24.75,4.4-1,8.89-1.57,13.35-2.19q84.46-11.69,168.94-23.33,48.72-6.71,97.44-13.34c3.88-.54,7.75-1.14,11.56-2,6.88-1.58,11.14-5.74,11.8-13,.32-3.59.57-7.2.58-10.81C731.19,746.21,731.16,726.05,731.16,705.89Z"/></svg>