<svg id="Layer_1" data-name="Layer 1" xmlns="http://www.w3.org/2000/svg" viewBox="0 0 2664.76 1416.23"><defs><style>.cls-1{fill:#fff;}</style></defs><title>iglong</title><rect x="-81.85" y="-83.13" width="2828.46" height="1580.98"/><path class="cls-1" d="M1317.17,707.72q0-63.65,0-127.29c0-17.55,1.87-34.82,6.72-51.74a170.58,170.58,0,0,1,136-121.31,164.18,164.18,0,0,1,70.68,3.27c27.29,7.39,54.42,15.39,81.6,23.15,16.49,4.7,33,9.24,49.43,14.23a91.91,91.91,0,0,0,41.06,2.69q56.67-8.52,113.35-17,51.32-7.65,102.66-15.24,39.27-5.85,78.53-11.77c4.77-.71,9.52-1.55,14.31-1.9a46.64,46.64,0,0,1,10.76.36,16.47,16.47,0,0,1,13.38,10.86,69.08,69.08,0,0,1,3.68,13.91q7.38,48.18,14.38,96.42a56.44,56.44,0,0,1,.49,10.79c-.41,8.33-4.54,14.32-12.43,17.12a75.59,75.59,0,0,1-14,3.42q-68.27,10.29-136.57,20.36c-38.38,5.73-76.74,11.59-115.14,17.25-23.5,3.46-47,6.92-70.59,9.9-26,3.29-51.69.35-76.83-6.75-37.92-10.71-75.75-21.74-113.64-32.57-6.07-1.74-12.2-3.26-18.35-4.7a27.34,27.34,0,0,0-7.14-.78c-8.33.27-14.26,4.77-16.63,12.77a49.18,49.18,0,0,0-1.64,9.75c-.29,3.59-.19,7.22-.19,10.83q0,114.19,0,228.41c0,3,0,6,.09,9a53.76,53.76,0,0,0,.58,7.19c2.15,13,9.83,18.78,22.9,17a92.61,92.61,0,0,0,13.15-3.1q58.56-16.74,117.09-33.61a210.94,210.94,0,0,1,76.76-8.13c11.08.92,22.11,2.57,33.12,4.18q52.68,7.74,105.32,15.69,50.88,7.59,101.76,15.16a57.49,57.49,0,0,0,9.87.81c6.92-.2,10.36-3.84,10.7-10.78.35-7.2-2.53-12.29-9.21-15a87.3,87.3,0,0,0-13-3.82q-59.31-13.89-118.64-27.65c-7.91-1.84-15.85-3.58-23.69-5.68a51.47,51.47,0,0,1-10.91-4.19,16.73,16.73,0,0,1-9.36-15.4,52,52,0,0,1,1.14-11.62q11.18-48.84,22.65-97.59a57.18,57.18,0,0,1,2.76-8.58c3.95-9.65,10-13.63,20.27-13.13a66.65,66.65,0,0,1,11.57,1.73q52.77,12.13,105.49,24.43,72.51,16.89,145,33.87a128.35,128.35,0,0,1,14.73,4.2c8.64,3.17,13.81,9.44,14.93,18.69a106.11,106.11,0,0,1,.9,12.58q.08,80.81,0,161.6c0,13-1.11,25.83-4.74,38.4a111.79,111.79,0,0,1-92.42,79.62c-12.71,1.72-25.25.91-37.77-.92-37.8-5.52-75.57-11.28-113.35-16.92q-51.33-7.65-102.67-15.24c-21.72-3.22-43.46-6.32-65.16-9.67a83.92,83.92,0,0,0-36.62,2.15q-42.91,12.39-85.89,24.61c-15,4.3-30,8.84-45.14,12.8-50.93,13.36-98.78,6-142.08-24-46.22-32.07-70.4-77.09-73.72-133.24-.4-6.9-.29-13.84-.3-20.76q0-59.58,0-119.17Z"/><path class="cls-1" d="M870.62,705.89q0-28.89,0-57.77c0-3,0-6-.19-9-.87-11.43-4.3-15.25-15.72-17.4-4.43-.83-8.91-1.37-13.38-2q-71.07-9.83-142.13-19.62-55.43-7.62-110.85-15.2c-6.56-.9-13.09-1.95-19.62-3a41.82,41.82,0,0,1-6.15-1.41c-10.19-3.25-15.07-9.26-14.77-20,.24-8.69,1.49-17.37,2.65-26q5-37.12,10.27-74.2a113.79,113.79,0,0,1,2.85-15.05c3-10.71,9.35-15.46,20.36-15.6a65.5,65.5,0,0,1,9.88.72Q677.41,441.8,761,453.32q81.33,11.24,162.66,22.6a112.35,112.35,0,0,0,43.8-2.34q125.08-31.65,250.28-62.79a107.14,107.14,0,0,1,12.35-2.6c11.26-1.44,18.43,2.8,22.76,13.36a78.6,78.6,0,0,1,3.29,10.3q11.63,45.93,23.07,91.9a67.74,67.74,0,0,1,2,13.34c.35,8-3.23,14.11-10.47,17.45a91,91,0,0,1-15.31,5.24c-21.55,5.56-43.16,10.91-64.74,16.32q-72.21,18.12-144.39,36.26a95.94,95.94,0,0,0-12,3.78,14.21,14.21,0,0,0-9.25,12.35,90.93,90.93,0,0,0-.52,9.9q-.06,67.71,0,135.4c0,2.71.16,5.41.3,8.12.39,7.87,4.53,12.84,11.93,15.18,3.15,1,6.36,1.83,9.57,2.6q94.32,22.6,188.65,45.16c7.31,1.75,14.63,3.45,21.9,5.37a70.38,70.38,0,0,1,10.22,3.5c8.45,3.69,12.14,10.47,11.64,19.49a61.53,61.53,0,0,1-1.64,10.69q-11.16,47-22.51,93.89a72.66,72.66,0,0,1-2.86,9.5c-4.1,10.44-10.6,14.59-21.66,13.69a78,78,0,0,1-11.54-2q-74.61-17.75-149.2-35.58c-34.81-8.31-69.65-16.5-104.42-25a103.11,103.11,0,0,0-39.36-1.83c-57.19,8-114.42,15.83-171.62,23.72q-78.23,10.78-156.44,21.53a101.58,101.58,0,0,1-15.29.92c-9.19-.14-15.37-4.88-18-13.63a98.87,98.87,0,0,1-3.17-15q-6.32-44.68-12.37-89.4c-.41-3-.71-6-.83-9-.64-14.82,4.53-21.55,19.17-24.75,4.4-1,8.89-1.57,13.36-2.19q84.47-11.69,168.93-23.33,48.72-6.71,97.45-13.34c3.87-.54,7.75-1.14,11.55-2,6.88-1.58,11.15-5.74,11.8-13,.32-3.59.57-7.2.58-10.81C870.64,746.21,870.61,726.05,870.62,705.89Z"/></svg>