<svg id="Layer_1" data-name="Layer 1" xmlns="http://www.w3.org/2000/svg" viewBox="0 0 1841.68 711.91"><title>ig round but new 2020 [Converted]</title><path d="M914.37,365.74q0-74.7,0-149.39c0-20.59,2.2-40.86,7.88-60.71A200.2,200.2,0,0,1,1081.8,13.28a192.73,192.73,0,0,1,83,3.83c32,8.68,63.85,18.06,95.76,27.17,19.35,5.51,38.75,10.84,58,16.7a108,108,0,0,0,48.19,3.16q66.49-10,133-19.93,60.22-9,120.47-17.89,46.1-6.85,92.17-13.8c5.58-.84,11.17-1.83,16.79-2.24a54.91,54.91,0,0,1,12.62.43,19.32,19.32,0,0,1,15.71,12.74,81.57,81.57,0,0,1,4.32,16.33q8.65,56.54,16.87,113.14a65.46,65.46,0,0,1,.57,12.67c-.48,9.77-5.32,16.81-14.59,20.09a88.76,88.76,0,0,1-16.41,4c-53.41,8.05-106.85,15.91-160.27,23.89-45,6.72-90.06,13.6-135.11,20.23-27.59,4.07-55.19,8.13-82.85,11.63-30.56,3.86-60.65.4-90.16-7.93C1235.34,225,1191,212,1146.48,199.3c-7.12-2-14.31-3.83-21.53-5.52a32.88,32.88,0,0,0-8.38-.91c-9.77.32-16.73,5.6-19.52,15a57.09,57.09,0,0,0-1.91,11.44c-.35,4.21-.23,8.47-.23,12.71q0,134,0,268c0,3.53,0,7.06.11,10.59a65.93,65.93,0,0,0,.68,8.44c2.53,15.21,11.54,22,26.87,20a110.21,110.21,0,0,0,15.44-3.64q68.73-19.63,137.41-39.44c29.49-8.57,59.49-12.05,90.07-9.53,13,1.07,26,3,38.87,4.9q61.82,9.08,123.6,18.41,59.71,8.91,119.42,17.79a67.35,67.35,0,0,0,11.58,1c8.12-.24,12.16-4.51,12.55-12.65.42-8.45-3-14.42-10.8-17.59a104.62,104.62,0,0,0-15.21-4.49q-69.6-16.29-139.23-32.44c-9.29-2.16-18.6-4.21-27.8-6.67a60,60,0,0,1-12.8-4.92c-7.07-3.77-11-10-11-18.06A60.61,60.61,0,0,1,1456,418q13.11-57.3,26.59-114.52a66,66,0,0,1,3.23-10.07c4.64-11.33,11.71-16,23.78-15.4a77.15,77.15,0,0,1,13.59,2q61.92,14.24,123.79,28.66,85.1,19.83,170.15,39.76a149,149,0,0,1,17.29,4.93c10.14,3.71,16.2,11.07,17.51,21.92a123.86,123.86,0,0,1,1.06,14.77q.09,94.81,0,189.64c0,15.23-1.31,30.32-5.57,45.06A131.16,131.16,0,0,1,1739,718.25c-14.91,2-29.63,1.07-44.32-1.07-44.36-6.48-88.68-13.25-133-19.86q-60.23-9-120.47-17.88c-25.49-3.78-51-7.42-76.47-11.35a98.31,98.31,0,0,0-43,2.52q-50.36,14.55-100.78,28.88c-17.65,5-35.23,10.37-53,15-59.77,15.67-115.92,7-166.73-28.22C947,648.67,918.6,595.83,914.71,529.94c-.48-8.09-.35-16.23-.36-24.36q0-69.91,0-139.84Z" transform="translate(-11.37 -10.11)"/><path d="M390.32,363.58q0-33.9,0-67.79c0-3.53,0-7.07-.23-10.59-1-13.41-5-17.9-18.44-20.41-5.2-1-10.47-1.62-15.71-2.34q-83.4-11.53-166.79-23-65-9-130.09-17.84c-7.69-1.06-15.35-2.29-23-3.53a50.57,50.57,0,0,1-7.21-1.66c-12-3.81-17.69-10.86-17.34-23.44.28-10.19,1.75-20.38,3.11-30.51q5.83-43.56,12-87.07A134.48,134.48,0,0,1,30,57.72c3.53-12.57,11-18.14,23.89-18.31a77.87,77.87,0,0,1,11.6.85q98.09,13.41,196.17,26.93,95.45,13.17,190.88,26.52A132.06,132.06,0,0,0,504,91Q650.74,53.83,797.66,17.28a124.37,124.37,0,0,1,14.49-3.05c13.22-1.7,21.63,3.28,26.7,15.68A89.34,89.34,0,0,1,842.71,42q13.65,53.91,27.08,107.85a79.69,79.69,0,0,1,2.38,15.65c.41,9.34-3.8,16.56-12.29,20.48a106.4,106.4,0,0,1-18,6.15c-25.29,6.52-50.65,12.8-76,19.16q-84.72,21.25-169.44,42.54a111.76,111.76,0,0,0-14.12,4.45c-6.43,2.56-10.08,7.59-10.85,14.48a107.47,107.47,0,0,0-.61,11.63q-.06,79.44,0,158.89c0,3.17.2,6.35.36,9.52.46,9.24,5.32,15.08,14,17.81,3.7,1.17,7.46,2.16,11.23,3.06q110.68,26.52,221.38,53c8.58,2.05,17.18,4.06,25.71,6.31a83.09,83.09,0,0,1,12,4.1c9.92,4.33,14.24,12.29,13.66,22.88a72.14,72.14,0,0,1-1.92,12.54q-13.11,55.13-26.42,110.19a86.08,86.08,0,0,1-3.36,11.14c-4.81,12.25-12.43,17.12-25.42,16.06a90.41,90.41,0,0,1-13.54-2.33Q711,686.72,623.47,665.79c-40.85-9.75-81.74-19.36-122.54-29.32a121,121,0,0,0-46.19-2.14q-100.67,14.14-201.4,27.83-91.78,12.66-183.58,25.27a119.75,119.75,0,0,1-18,1.08c-10.77-.17-18-5.74-21.16-16a116.3,116.3,0,0,1-3.73-17.57Q19.51,602.5,12.41,550c-.48-3.49-.83-7-1-10.54-.75-17.39,5.32-25.29,22.5-29,5.17-1.13,10.43-1.84,15.67-2.57q99.12-13.71,198.26-27.37,57.17-7.87,114.35-15.67c4.54-.62,9.09-1.33,13.56-2.36,8.07-1.85,13.07-6.73,13.84-15.25.38-4.21.67-8.45.68-12.68C390.35,410.9,390.32,387.24,390.32,363.58Z" transform="translate(-11.37 -10.11)"/></svg>