<?xml version="1.0" encoding="utf-8"?>
<!-- Generator: Adobe Illustrator 23.0.6, SVG Export Plug-In . SVG Version: 6.00 Build 0)  -->
<svg version="1.1" id="Layer_1" xmlns="http://www.w3.org/2000/svg" xmlns:xlink="http://www.w3.org/1999/xlink" x="0px" y="0px"
	 viewBox="0 0 61.1 61.1" style="enable-background:new 0 0 61.1 61.1;" xml:space="preserve">
<style type="text/css">
	.st0{fill:#D1D1D1;}
</style>
<path class="st0" d="M27.8,57.3l-17.3-9.2c-2.1-1.1-2.1-4.1,0-5.2l17.3-9.2c1.7-0.9,3.8-0.9,5.5,0l17.3,9.2c2.1,1.1,2.1,4.1,0,5.2
	l-17.3,9.2C31.6,58.2,29.5,58.2,27.8,57.3z"/>
<g>
	<path class="st0" d="M54.2,12.8L36.6,3.5c-2-1.1-4.4,0.4-4.4,2.6v19.8c0,2.2,1.2,4.1,3.1,5.2l17.6,9.3c2,1.1,4.4-0.4,4.4-2.6V17.9
		C57.3,15.8,56.1,13.8,54.2,12.8z"/>
	<path class="st0" d="M6.9,12.8l17.6-9.3c2-1.1,4.4,0.4,4.4,2.6v19.8c0,2.2-1.2,4.1-3.1,5.2L8.2,40.4c-2,1.1-4.4-0.4-4.4-2.6V17.9
		C3.8,15.8,5,13.8,6.9,12.8z"/>
</g>
</svg>
