<?xml version="1.0" encoding="utf-8"?>
<!-- Generator: Adobe Illustrator 23.0.6, SVG Export Plug-In . SVG Version: 6.00 Build 0)  -->
<svg version="1.1" id="Layer_1" xmlns="http://www.w3.org/2000/svg" xmlns:xlink="http://www.w3.org/1999/xlink" x="0px" y="0px"
	 viewBox="0 0 445.7 263.2" style="enable-background:new 0 0 445.7 263.2;" xml:space="preserve">
<g>
	<path d="M252.9,191.9c5.2-1,10.2-1.6,15.1-2.9c13.3-3.4,25.1-9.2,33.2-20.9c4.9-7.1,7.5-15.1,8.9-23.5c1.6-9.8,2.2-19.7-0.1-29.6
		c-1.8-7.5-5.3-14.2-10.4-20c-1-1.2-1.1-2.1-0.6-3.5c3.7-10.7,2.2-21.1-1.7-31.3c-0.2-0.5-1.1-1-1.8-1.1c-4.7-0.7-9.1,0.7-13.3,2.6
		c-6.5,3.1-12.7,6.6-19.1,9.8c-1,0.5-2.3,0.8-3.3,0.5c-15.3-4-30.8-4.8-46.5-2.8c-4.7,0.6-9.3,1.7-13.9,2.8
		c-1.6,0.4-2.9,0.2-4.3-0.7c-6.9-4.8-14.5-8.3-22.5-10.8c-3-1-6.3-1-9.5-1.3c-0.6-0.1-1.7,0.8-1.9,1.4c-3.4,9.1-5.1,18.4-2.2,27.9
		c1.2,3.9,0.4,6.3-2,9.4c-6.3,7.9-9.3,17.3-9.6,27.4c-0.3,10.7,0.9,21.2,4.5,31.4c4.6,13,13.3,22,25.8,27.9c8.6,4,17.8,5.7,27,7
		c0.3,0,0.5,0.1,0.8,0.1c0,0.2,0,0.4,0,0.4c-4.2,4.4-6.5,9.6-7.5,15.5c-0.1,0.6-0.6,1.4-1.1,1.6c-7.7,3-15.6,4.6-23.6,1.4
		c-5.4-2.2-9.3-6.3-12.2-11.2c-3.1-5.3-7.2-9.3-12.6-12.1c-3.4-1.7-6.9-2.8-10.8-2.1c-3.1,0.5-3.6,1.8-1.7,4.2
		c0.9,1.2,2.1,2.4,3.4,3.2c6.7,3.8,10.4,10.1,13.6,16.8c1.4,2.9,2.6,6,4.4,8.6c4.1,5.5,9.9,8.3,16.7,9.4c7.2,1.1,14.4,1.4,21.6,0
		c0.5-0.1,0.9-0.1,1.6-0.1c0,0.7,0.1,1.3,0.1,2c0.1,6.8,0.2,13.7,0.2,20.5c0,6.4-4.1,9.2-10.3,7.1c-14.7-5.2-28.1-12.5-40.1-22.5
		c-9.7-8.1-18-17.4-25-27.9c-17.4-25.8-23.9-54.3-20.9-85.1c2.3-24.3,11.2-46,26.1-65.2c17.6-22.7,40.4-38,68.1-45.6
		c18.2-5,36.6-5.7,55.2-2.7c30.1,5,55.2,19.2,75.4,41.9c15.5,17.4,25.5,37.7,29.8,60.6c4.1,21.8,2.9,43.4-3.9,64.5
		c-5.9,18.5-16,34.7-29.3,48.9c-13.5,14.4-29.5,25-47.9,31.8c-1.3,0.5-2.5,0.9-3.8,1.4c-5.6,2-9.7-0.7-9.7-6.6
		c0-11.1,0.1-22.3-0.1-33.4c0-3.8-0.4-7.6-1.1-11.3C259.3,200.2,256.8,195.7,252.9,191.9z"/>
</g>
</svg>
