<?xml version="1.0" encoding="utf-8"?>
<!-- Generator: Adobe Illustrator 23.0.6, SVG Export Plug-In . SVG Version: 6.00 Build 0)  -->
<svg version="1.1" id="Layer_1" xmlns="http://www.w3.org/2000/svg" xmlns:xlink="http://www.w3.org/1999/xlink" x="0px" y="0px"
	 viewBox="0 0 445.7 263.2" style="enable-background:new 0 0 445.7 263.2;" xml:space="preserve">
<g>
	<path d="M433.4,183.7c1.2,2.1,1.8,4.5,1.5,7c-0.9,6.8-4.4,7.8-11.6,5c-20.1-7.9-40-16-60-24c-1.9-0.8-3.8-1.6-5.7-2.3
		c-6.4-2.6-10-0.6-10.9,6.4c-2.9,22.5-5.9,45.1-8.9,67.6c-0.2,1.4-0.9,3.8-1.3,4.9c-2.8,6.6-5,7.8-8.7,8.7c-5.7,1.3-8.4-3.9-9.1-9.4
		c-2.4-17.9-4.8-35.8-7.1-53.7c-0.7-5.2-1.3-10.4-2-15.6c-1.3-10-3.8-11.6-13.2-7.9c-18.9,7.5-38,14.7-56.7,22.9
		c-11,4.8-21,4.5-31.9-0.2c-18.4-8-37.2-15.1-55.9-22.6c-9.6-3.8-12.1-2.4-13.4,7.5c-3,22.5-6.1,45.1-8.9,67.6
		c-0.7,6-2.2,11.5-9.1,11.8c-7.7,0.4-9.3-5.7-10.1-11.8c-3-22.5-6-45.1-8.9-67.6c-1.3-10.1-3.4-11.4-13.2-7.6c-20,7.9-40,16-60,24
		c-2.2,0.9-4.5,2.5-6.5,2.3c-3.4-0.4-8.3-1.1-9.5-3.4c-1.3-2.4,0.3-6.9,1.6-10.1c0.8-1.9,3.3-3.1,5.2-4.6
		c17.4-13.7,34.9-27.3,52.2-41.1c7.2-5.7,7.2-8.3-0.2-14.1C53.1,109,35.2,95,17.4,80.9c-4.1-3.3-9.3-6.9-5.6-12.8
		c3.5-5.6,9.2-3.3,14.2-1.3C46.3,74.9,66.6,82.9,86.8,91c12.1,4.8,13.7,4,15.7-9.2c3.2-21.9,6.2-43.9,9.3-65.8c0.7-5,1.3-10,8.4-9.9
		c6.6,0.1,7.1,4.7,7.8,9.5c3.3,23.1,6.6,46.2,10,69.2c1.3,9.1,3.8,10.6,12.2,7.2c19.8-7.8,39.6-15.4,59.2-23.7
		c10.1-4.3,19.4-4.2,29.5,0.1c19.3,8.2,38.9,15.7,58.4,23.4c6.1,2.4,11.8-0.9,12.7-7.4c3.4-23.1,6.7-46.2,10-69.3
		c0.7-4.8,1.6-9.2,8.1-9.2c6.6,0.1,7.2,4.7,7.9,9.4c3.3,23.1,6.5,46.2,10,69.2c1.5,9.7,3.6,10.8,12.8,7.1
		c20.8-8.2,41.6-16.8,62.6-24.6c3.9-1.4,11.5-1.4,12.8,0.7c2.9,4.9,0.6,10-4.7,14.1c-17.7,13.4-35,27.3-52.3,41
		c-7.7,6.1-7.7,8.6,0,14.7c17.6,13.9,35.4,27.7,52.8,41.8C431.4,180.6,432.5,182.2,433.4,183.7z M223.9,178.6
		c2.8-1.4,5.3-2.1,7.3-3.6c16.5-12.5,32.8-25.2,49.3-37.7c5.5-4.2,5.8-8.2,0.2-12.6c-16.5-12.9-33-25.9-49.5-38.9
		c-5.1-4-10.1-3.7-15.1,0.3c-16.2,12.8-32.4,25.7-48.8,38.4c-6,4.7-5.7,8.6,0.2,13.1c16,12.1,31.9,24.5,47.9,36.7
		C217.9,176,221,177.1,223.9,178.6z"/>
</g>
</svg>
