<?xml version="1.0" encoding="utf-8"?>
<!-- Generator: Adobe Illustrator 23.0.6, SVG Export Plug-In . SVG Version: 6.00 Build 0)  -->
<svg version="1.1" id="Layer_1" xmlns="http://www.w3.org/2000/svg" xmlns:xlink="http://www.w3.org/1999/xlink" x="0px" y="0px"
	 viewBox="0 0 445.7 263.2" style="enable-background:new 0 0 445.7 263.2;" xml:space="preserve">
<g>
	<path d="M222.8,235.8c-37.6,0-75.2,0.1-112.8,0c-17.4,0-31.3-7-41-21.6c-4.8-7.1-7.4-15.1-7.4-23.7c-0.1-39.4-0.3-78.7,0.1-118.1
		c0.2-23,19.6-43.3,42.4-44.4c21.5-0.9,43.1-0.6,64.7-0.6c55.2-0.1,110.5,0,165.7,0c22.3,0,39.9,11.6,46.7,31.3
		c1.8,5.4,2.8,11.4,2.9,17.1c0.3,37.1,0.1,74.1,0.2,111.2c0,27.8-20.5,48.6-48.2,48.7C298.3,235.8,260.5,235.8,222.8,235.8z
		 M105.7,50.8c39.5,37.9,78.2,75.2,117.1,112.5c39-37.5,77.8-74.7,117.1-112.5C261.5,50.8,184.2,50.8,105.7,50.8z M105.7,212.4
		c78.4,0,155.8,0,234,0c-22.8-21.9-44.9-43.2-67.2-64.6c-1.4,1.3-2.7,2.4-3.8,3.5c-12.2,11.7-24.5,23.5-36.7,35.3
		c-6.2,6-12.4,6-18.6,0.1c-6.2-6-12.5-12.1-18.8-18.1c-7.2-6.9-14.4-13.8-21.8-20.8C150.7,169.2,128.5,190.5,105.7,212.4z
		 M156.3,131.6c-23.3-22.4-46.2-44.5-70.1-67.4c-0.7,4.6-1.6,8-1.6,11.2c-0.1,37.4-0.1,74.7,0,112.1c0,3.5,1.1,6.9,1.8,11.3
		C110.2,176,133.1,153.9,156.3,131.6z M359.3,198.9c0.7-4.5,1.6-8.1,1.6-11.7c0.1-37.2,0.1-74.4,0-111.6c0-3.5-1-7-1.6-11.4
		c-23.9,23-46.9,45-70,67.4C312.6,154,335.5,176.1,359.3,198.9z"/>
</g>
</svg>
