<?xml version="1.0" encoding="utf-8"?>
<!-- Generator: Adobe Illustrator 23.0.6, SVG Export Plug-In . SVG Version: 6.00 Build 0)  -->
<svg version="1.1" id="Layer_1" xmlns="http://www.w3.org/2000/svg" xmlns:xlink="http://www.w3.org/1999/xlink" x="0px" y="0px"
	 viewBox="0 0 445.7 263.2" style="enable-background:new 0 0 445.7 263.2;" xml:space="preserve">
<g>
	<path d="M277.6,230.7c23.9-8.1,43.8-20.9,60.1-37.8c-76.7,43.3-153.5,43.3-230.4-0.2c3.8,3.5,7.9,7.8,12.5,11.4
		c4.8,3.8,9.7,7.5,14.9,10.8c5,3.2,10.2,6.1,15.5,8.7c5.4,2.6,11.1,4.9,17.2,7.4c-3.6,4.9-7,9.4-10.7,13.8c-0.7,0.9-2.7,1.3-4,1.2
		c-34.9-3.1-66-14.9-90.8-40.6c-1.6-1.7-2-5.1-1.8-7.8c2.7-40.9,10.8-80.5,26.5-118.3c3.3-7.8,7.4-15.2,10.7-23
		c5.2-12.3,16.4-17.6,27.1-23.3c15-7.9,30.9-13,47.7-15.6c5-0.7,7.9,0.3,8.7,6.2c-25,5.9-47.7,16.5-66.9,34.3
		c72.4-36.3,144.6-36.4,217,0.3c-4-5.9-17.2-15.7-31-22c-11.5-5.1-23.6-9.1-35.4-13.6c0.6-4.8,3.4-6.1,8.4-5.3
		c24.8,3.5,47,13.2,67.1,27.7c3.7,2.6,5.8,7.9,8.1,12.1c15.1,28.3,24.8,58.6,30.5,90c3.2,17.3,5,34.9,7.1,52.4
		c0.3,2-0.9,4.7-2.3,6.2c-19,20.3-43,31.5-69.6,37.5c-6.5,1.4-13.1,1.9-19.6,3c-3.1,0.5-5.1-0.5-6.9-3
		C284.2,239.1,281.1,235.2,277.6,230.7z M245,147.2c0-0.1-0.2,1.3,0,2.6c1.5,10.7,6.7,18.9,16.9,23c9.8,4,18.7,1.6,26.2-5.7
		c11.8-11.4,11.5-31.6-0.5-43c-10.5-9.9-25.1-9.6-34.9,0.8C247.4,130.7,244.4,137.6,245,147.2z M199.9,146.1c0-1.5,0.1-3.1,0-4.6
		c-1-13.3-14.1-25.4-26.5-24.7c-12.9,0.8-23.7,11.8-25.1,25.8c-1.5,13.7,7.2,27.6,19.5,30.9C184.3,178.2,199.9,164.9,199.9,146.1z"
		/>
</g>
</svg>
